<?xml version="1.0" encoding="iso-8859-1"?>
<!-- Generator: Adobe Illustrator 16.0.0, SVG Export Plug-In . SVG Version: 6.00 Build 0)  -->
<!DOCTYPE svg PUBLIC "-//W3C//DTD SVG 1.1//EN" "http://www.w3.org/Graphics/SVG/1.1/DTD/svg11.dtd">
<svg version="1.1" id="Capa_1" xmlns="http://www.w3.org/2000/svg" xmlns:xlink="http://www.w3.org/1999/xlink" x="0px" y="0px"
	 width="612px" height="612px" viewBox="0 0 612 612" style="enable-background:new 0 0 612 612;" xml:space="preserve">
<g>
	<g>
		<g>
			<g>
				<g>
					<path d="M289.806,395.603v173.971H612V395.603H289.806z M409.653,536.319h-69.787v-13.918l12.702-11.504
						c21.525-19.229,31.955-30.283,32.28-41.795c0-8.023-4.895-14.367-16.215-14.367c-8.475,0-15.891,4.236-21.052,8.174
						l-6.501-16.506c7.434-5.594,18.929-10.139,32.238-10.139c22.242,0,34.495,13.02,34.495,30.873
						c0,16.498-11.929,29.666-26.171,42.395l-9.064,7.566v0.316h37.074V536.319L409.653,536.319z M486.559,512.862h-11.795v23.457
						h-21.792v-23.457h-43.618V497.87l37.283-59.941h28.127v57.686h11.795V512.862L486.559,512.862z M561.915,536.319h-23.008
						v-40.705c0-9.715-3.338-16.365-11.944-16.365c-6.085,0-9.864,3.945-11.529,8.025c-0.591,1.514-0.715,3.486-0.715,5.16v43.893
						h-23.024V428.849h23.024v42.244h0.266c2.447-3.189,5.461-5.604,9.106-7.6c3.338-1.814,7.717-2.863,11.945-2.863
						c14.675,0,25.887,10.137,25.887,32.396v43.293H561.915z"/>
				</g>
			</g>
		</g>
		<g>
			<g>
				<g>
					<path d="M444.015,473.806l-13.144,21.5v0.309h22.092v-21.809c0-5.893,0.3-11.971,0.758-18.32h-0.607
						C449.958,461.835,447.353,467.604,444.015,473.806z"/>
				</g>
			</g>
		</g>
		<g>
			<g>
				<g>
					<path d="M238.281,463.31v22.084c-91.214-7.883-163.998-80.701-171.889-171.906h22.092c9.048,0,16.365-7.342,16.365-16.39
						c0-9.048-7.317-16.373-16.365-16.373H66.392c7.891-91.214,80.675-164.015,171.889-171.906v22.091
						c0,9.057,7.316,16.398,16.406,16.398c9.048,0,16.381-7.342,16.381-16.398v-22.1c91.197,7.891,164.015,80.692,171.89,171.906
						h-22.092c-9.049,0-16.382,7.333-16.382,16.373c0,9.056,7.342,16.391,16.382,16.391h22.092
						c-1.499,17.246-5.386,33.777-11.246,49.336h68.556c5.694-20.977,9.065-42.895,9.065-65.727
						c0-140.641-114.013-254.662-254.646-254.662C114.029,42.427,0,156.448,0,297.089c0,140.674,114.029,254.688,254.687,254.688
						c0.799,0,1.573-0.117,2.331-0.125V447.394c-0.774-0.125-1.499-0.475-2.331-0.475
						C245.597,446.919,238.281,454.253,238.281,463.31z"/>
				</g>
			</g>
		</g>
		<g>
			<g>
				<g>
					<path d="M349.58,321.677c13.576,0,24.597-10.994,24.597-24.588c0-13.568-11.012-24.572-24.597-24.572h-59.075
						c-7.85-11.396-20.951-18.887-35.826-18.887c-0.25,0-0.474,0.067-0.699,0.067l-53.839-75.756
						c-7.85-11.087-23.207-13.676-34.27-5.802c-11.054,7.858-13.651,23.207-5.785,34.278l53.872,75.847
						c-1.706,4.645-2.763,9.606-2.763,14.842c0,24.04,19.453,43.493,43.484,43.493c14.867,0,27.994-7.5,35.826-18.904h59.075
						V321.677z"/>
				</g>
			</g>
		</g>
	</g>
</g>
<g>
</g>
<g>
</g>
<g>
</g>
<g>
</g>
<g>
</g>
<g>
</g>
<g>
</g>
<g>
</g>
<g>
</g>
<g>
</g>
<g>
</g>
<g>
</g>
<g>
</g>
<g>
</g>
<g>
</g>
</svg>
