<?xml version="1.0" encoding="iso-8859-1"?>
<!-- Generator: Adobe Illustrator 16.0.0, SVG Export Plug-In . SVG Version: 6.00 Build 0)  -->
<!DOCTYPE svg PUBLIC "-//W3C//DTD SVG 1.1//EN" "http://www.w3.org/Graphics/SVG/1.1/DTD/svg11.dtd">
<svg version="1.1" id="Capa_1" xmlns="http://www.w3.org/2000/svg" xmlns:xlink="http://www.w3.org/1999/xlink" x="0px" y="0px"
	 width="612.002px" height="612.002px" viewBox="0 0 612.002 612.002" style="enable-background:new 0 0 612.002 612.002;"
	 xml:space="preserve">
<g>
	<g>
		<path d="M477.087,291.554c0-94.483-76.614-171.081-171.089-171.081c-94.466,0-171.081,76.597-171.081,171.081
			c0,94.466,76.614,171.081,171.081,171.081C400.473,462.643,477.087,386.029,477.087,291.554z M319.174,422.475v-19.268
			c0-7.264-5.889-13.168-13.176-13.168c-7.279,0-13.167,5.906-13.167,13.168v19.268c-62.047-6.195-111.559-55.707-117.754-117.754
			h19.286c7.262,0,13.15-5.888,13.15-13.167c0-7.288-5.888-13.167-13.15-13.167h-19.286
			c6.195-62.047,55.707-111.542,117.754-117.754v19.269c0,7.262,5.888,13.167,13.167,13.167c7.287,0,13.176-5.905,13.176-13.167
			v-19.269c62.047,6.212,111.559,55.707,117.754,117.754h-19.252c-7.278,0-13.167,5.888-13.167,13.167
			c0,7.279,5.889,13.167,13.167,13.167h19.243C430.732,366.777,381.221,416.289,319.174,422.475z"/>
		<path d="M369.769,271.79h-42.36c-4.548-4.916-10.684-8.184-17.664-9.08l-37.735-53.104c-6.307-8.892-18.68-10.974-27.546-4.668
			c-8.867,6.323-10.957,18.654-4.643,27.546l37.633,53.01c-0.418,1.971-0.649,3.977-0.649,6.059
			c0,16.138,13.057,29.228,29.185,29.228c8.491,0,16.059-3.688,21.41-9.465h42.361c10.896,0,19.729-8.849,19.729-19.763
			C389.498,280.639,380.666,271.79,369.769,271.79z"/>
		<path d="M224.4,120.26c-8.218-6.75-17.989-11.546-28.536-14.447v-2.68c0-15.557,12.672-28.229,28.237-28.229H387.92
			c15.557,0,28.237,12.672,28.237,28.229v2.68c-10.556,2.901-20.318,7.706-28.536,14.447
			c47.941,22.921,84.857,65.265,100.32,116.893c15.676-14.123,25.592-34.501,25.592-57.251c0-40.543-31.31-73.688-71.05-76.785
			C442.449,73.027,418,48.578,387.911,48.578H224.093c-30.089,0-54.538,24.449-54.555,54.538
			c-39.741,3.098-71.05,36.242-71.05,76.785c0,22.75,9.916,43.12,25.592,57.251C139.543,185.524,176.459,143.181,224.4,120.26z"/>
		<path d="M205.166,450.217c-94.091-54.537-87.512-152.903-87.17-157.05c0.879-10.744-7.091-20.182-17.852-21.104
			c-10.625-1.067-20.242,7.074-21.163,17.835c-0.444,5.137-9.481,126.946,106.567,194.19c3.081,1.801,6.46,2.637,9.788,2.637
			c6.75,0,13.321-3.5,16.957-9.771C217.727,467.609,214.536,455.645,205.166,450.217z"/>
		<path d="M178.848,525.842C26.985,461.209,38.804,288.806,39.393,281.484c0.845-10.761-7.185-20.19-17.946-21.069
			c-10.897-0.691-20.165,7.151-21.086,17.895c-0.154,2.065-15.002,207.749,163.153,283.544c2.509,1.066,5.103,1.57,7.663,1.57
			c7.612,0,14.84-4.473,18.006-11.912C193.432,541.568,188.781,530.066,178.848,525.842z"/>
		<path d="M533.016,289.898c-0.913-10.761-10.53-18.91-21.163-17.835c-10.778,0.921-18.774,10.402-17.835,21.163
			c0.076,1.016,7.586,102.053-87.188,156.991c-9.37,5.428-12.562,17.4-7.126,26.744c3.627,6.273,10.206,9.771,16.956,9.771
			c3.328,0,6.708-0.844,9.788-2.637C542.496,416.844,533.459,295.035,533.016,289.898z"/>
		<path d="M611.644,278.31c-0.896-10.744-10.155-18.603-21.087-17.895c-10.76,0.879-18.79,10.3-17.945,21.069
			c0.589,7.322,12.407,179.725-139.447,244.358c-9.941,4.225-14.583,15.727-10.342,25.67c3.174,7.457,10.402,11.912,18.006,11.912
			c2.56,0,5.162-0.496,7.663-1.57C626.646,486.059,611.789,280.375,611.644,278.31z"/>
	</g>
</g>
<g>
</g>
<g>
</g>
<g>
</g>
<g>
</g>
<g>
</g>
<g>
</g>
<g>
</g>
<g>
</g>
<g>
</g>
<g>
</g>
<g>
</g>
<g>
</g>
<g>
</g>
<g>
</g>
<g>
</g>
</svg>
