<?xml version="1.0" encoding="iso-8859-1"?>
<!-- Generator: Adobe Illustrator 16.0.0, SVG Export Plug-In . SVG Version: 6.00 Build 0)  -->
<!DOCTYPE svg PUBLIC "-//W3C//DTD SVG 1.1//EN" "http://www.w3.org/Graphics/SVG/1.1/DTD/svg11.dtd">
<svg version="1.1" id="Capa_1" xmlns="http://www.w3.org/2000/svg" xmlns:xlink="http://www.w3.org/1999/xlink" x="0px" y="0px"
	 width="612px" height="612px" viewBox="0 0 612 612" style="enable-background:new 0 0 612 612;" xml:space="preserve">
<g>
	<g>
		<g>
			<g>
				<g>
					<path d="M480.381,330.231c-72.685,0-131.638,58.953-131.638,131.639c0,72.684,58.953,131.6,131.638,131.6
						c72.684,0,131.619-58.916,131.619-131.6C612,389.185,553.064,330.231,480.381,330.231z M488.838,559.171v-11.383
						c0-4.686-3.773-8.494-8.457-8.494c-4.685,0-8.458,3.809-8.458,8.494v11.383c-47.155-4.059-84.786-41.725-88.844-88.844h11.402
						c4.665,0,8.457-3.791,8.457-8.457c0-4.721-3.792-8.477-8.457-8.477h-11.402c4.058-47.156,41.688-84.768,88.844-88.826v11.357
						c0,4.701,3.773,8.494,8.458,8.494c4.684,0,8.457-3.793,8.457-8.494v-11.357c47.138,4.059,84.805,41.67,88.845,88.826H566.28
						c-4.685,0-8.476,3.756-8.476,8.477c0,4.666,3.791,8.457,8.476,8.457h11.402C573.651,517.446,535.976,555.112,488.838,559.171z"
						/>
				</g>
			</g>
		</g>
		<g>
			<g>
				<g>
					<path d="M529.432,449.142h-30.535c-4.059-5.881-10.813-9.773-18.516-9.773c-0.11,0-0.23,0.037-0.359,0.037l-27.829-39.168
						c-4.059-5.715-11.991-7.039-17.716-3c-5.706,4.078-7.077,12.029-3,17.752l27.848,39.188c-0.855,2.393-1.408,4.951-1.408,7.684
						c0,12.424,10.05,22.438,22.455,22.438c7.703,0,14.477-3.848,18.517-9.729h30.535c7.021,0,12.728-5.668,12.728-12.709
						C542.159,454.829,536.454,449.142,529.432,449.142z"/>
				</g>
			</g>
		</g>
		<g>
			<g>
				<g>
					<path d="M319.229,461.87c0-76.799,54.075-141.145,126.116-157.204v-33.802c0-87.722-62.368-160.939-145.222-177.634
						c6.258-7.868,10.132-17.715,10.132-28.529c0-25.492-20.651-46.171-46.152-46.171c-25.492,0-46.171,20.679-46.171,46.171
						c0,10.813,3.875,20.661,10.132,28.529C145.23,109.924,82.844,183.142,82.844,270.864v73.403
						c0,11.908-9.654,21.543-21.562,21.543C27.443,365.819,0,393.263,0,427.12c0,33.838,27.443,61.281,61.282,61.281h260.331
						C320.177,479.761,319.229,470.915,319.229,461.87z"/>
				</g>
			</g>
		</g>
		<g>
			<g>
				<g>
					<path d="M199.316,507.093c4.307,32.43,31.768,57.545,65.358,57.545c30.876,0,56.34-21.285,63.657-49.889
						c-0.875-2.539-1.768-5.061-2.521-7.666H199.316V507.093z"/>
				</g>
			</g>
		</g>
	</g>
</g>
<g>
</g>
<g>
</g>
<g>
</g>
<g>
</g>
<g>
</g>
<g>
</g>
<g>
</g>
<g>
</g>
<g>
</g>
<g>
</g>
<g>
</g>
<g>
</g>
<g>
</g>
<g>
</g>
<g>
</g>
</svg>
