<?xml version="1.0" encoding="iso-8859-1"?>
<!-- Generator: Adobe Illustrator 16.0.0, SVG Export Plug-In . SVG Version: 6.00 Build 0)  -->
<!DOCTYPE svg PUBLIC "-//W3C//DTD SVG 1.1//EN" "http://www.w3.org/Graphics/SVG/1.1/DTD/svg11.dtd">
<svg version="1.1" id="Capa_1" xmlns="http://www.w3.org/2000/svg" xmlns:xlink="http://www.w3.org/1999/xlink" x="0px" y="0px"
	 width="612px" height="612px" viewBox="0 0 612 612" style="enable-background:new 0 0 612 612;" xml:space="preserve">
<g>
	<g>
		<path d="M306,106.721c-139.339,0-252.293,112.934-252.293,252.293c0,139.33,112.944,252.285,252.293,252.285
			c139.329,0,252.294-112.955,252.294-252.285C558.294,219.655,445.329,106.721,306,106.721z M325.421,552.061v-28.408
			c0-10.738-8.694-19.422-19.421-19.422c-10.717,0-19.42,8.684-19.42,19.422v28.408c-91.521-9.141-164.495-82.125-173.636-173.635
			h28.419c10.727,0,19.421-8.684,19.421-19.422c0-10.736-8.694-19.42-19.421-19.42h-28.419
			c9.131-91.521,82.115-164.505,173.636-173.636v28.409c0,10.727,8.693,19.421,19.42,19.421c10.727,0,19.421-8.694,19.421-19.421
			v-28.409c91.52,9.131,164.505,82.115,173.635,173.636h-28.398c-10.727,0-19.42,8.684-19.42,19.42
			c0,10.738,8.693,19.422,19.42,19.422h28.398C489.915,469.936,416.94,542.92,325.421,552.061z"/>
		<path d="M400.012,329.883h-62.44c-6.69-7.238-15.791-12.078-26.061-13.41l-55.628-78.303c-9.313-13.116-27.473-16.197-40.61-6.873
			c-13.116,9.313-16.197,27.494-6.873,40.61l55.506,78.15c-0.61,2.887-0.956,5.877-0.956,8.947c0,23.803,19.268,43.082,43.05,43.082
			c12.526,0,23.701-5.42,31.571-13.961h62.44c16.085,0,29.12-13.045,29.12-29.131C429.143,342.93,416.097,329.883,400.012,329.883z"
			/>
		<path d="M507.241,81.139c-0.021-44.352-36.106-80.438-80.458-80.438h-73.777h-47.026H185.207
			c-44.352,0-80.438,36.085-80.458,80.438C46.152,85.704,0,134.591,0,194.357c0,33.534,14.611,63.6,37.702,84.403
			c22.807-76.136,77.265-138.536,147.972-172.354c-12.141-9.944-26.528-17.031-42.084-21.302v-3.945
			c0-22.948,18.668-41.627,41.617-41.627h120.773h47.026h73.777c22.959,0,41.627,18.668,41.627,41.627v3.945
			c-15.557,4.271-29.954,11.357-42.084,21.302c70.706,33.818,125.155,96.228,147.972,172.354
			C597.389,257.957,612,227.891,612,194.357C612,134.591,565.849,85.704,507.241,81.139z"/>
	</g>
</g>
<g>
</g>
<g>
</g>
<g>
</g>
<g>
</g>
<g>
</g>
<g>
</g>
<g>
</g>
<g>
</g>
<g>
</g>
<g>
</g>
<g>
</g>
<g>
</g>
<g>
</g>
<g>
</g>
<g>
</g>
</svg>
