<?xml version="1.0" encoding="iso-8859-1"?>
<!-- Generator: Adobe Illustrator 16.0.0, SVG Export Plug-In . SVG Version: 6.00 Build 0)  -->
<!DOCTYPE svg PUBLIC "-//W3C//DTD SVG 1.1//EN" "http://www.w3.org/Graphics/SVG/1.1/DTD/svg11.dtd">
<svg version="1.1" id="Capa_1" xmlns="http://www.w3.org/2000/svg" xmlns:xlink="http://www.w3.org/1999/xlink" x="0px" y="0px"
	 width="612px" height="612px" viewBox="0 0 612 612" style="enable-background:new 0 0 612 612;" xml:space="preserve">
<g>
	<g>
		<path d="M526.711,89.988H326.309v32.951c0,11.221-9.079,20.308-20.291,20.308c-11.229,0-20.308-9.087-20.308-20.308V89.988H85.289
			c-9.425,0-17.118,7.666-17.118,17.109v177.797h32.959c11.23,0,20.309,9.087,20.309,20.299c0,11.211-9.079,20.309-20.309,20.309
			H68.171v177.77c0,9.443,7.693,17.119,17.118,17.119H285.71v-32.943c0-11.201,9.079-20.299,20.308-20.299
			c11.203,0,20.291,9.088,20.291,20.299v32.943h200.402c9.425,0,17.118-7.686,17.118-17.119v-177.77h-32.96
			c-11.229,0-20.309-9.088-20.309-20.309c0-11.211,9.079-20.299,20.309-20.299h32.96V107.097
			C543.829,97.654,536.136,89.988,526.711,89.988z M438.696,340.66h-79.547c-10.455,17.629-29.45,29.568-51.436,29.568
			c-33.151,0-60.014-26.879-60.014-60.021c0-8.714,1.951-16.945,5.278-24.41l-73.021-102.745
			c-9.716-13.718-6.508-32.732,7.192-42.476c13.7-9.744,32.714-6.544,42.467,7.183l73.175,102.945
			c1.641-0.137,3.246-0.492,4.931-0.492c21.967,0,40.981,11.922,51.437,29.542h79.546c16.827,0,30.472,13.627,30.472,30.463
			C469.168,327.033,455.532,340.66,438.696,340.66z"/>
		<path d="M543.929,25.107H68.053C30.472,25.107,0,55.588,0,93.169v425.663c0,37.58,30.472,68.061,68.053,68.061h475.876
			c37.6,0,68.071-30.48,68.071-68.061V93.169C612,55.588,581.528,25.107,543.929,25.107z M571.384,518.832
			c0,15.139-12.306,27.445-27.455,27.445H68.053c-15.131,0-27.436-12.307-27.436-27.445V93.169c0-15.14,12.305-27.445,27.436-27.445
			h475.876c15.149,0,27.455,12.305,27.455,27.445V518.832z"/>
	</g>
</g>
<g>
</g>
<g>
</g>
<g>
</g>
<g>
</g>
<g>
</g>
<g>
</g>
<g>
</g>
<g>
</g>
<g>
</g>
<g>
</g>
<g>
</g>
<g>
</g>
<g>
</g>
<g>
</g>
<g>
</g>
</svg>
