<?xml version="1.0" encoding="iso-8859-1"?>
<!-- Generator: Adobe Illustrator 16.0.0, SVG Export Plug-In . SVG Version: 6.00 Build 0)  -->
<!DOCTYPE svg PUBLIC "-//W3C//DTD SVG 1.1//EN" "http://www.w3.org/Graphics/SVG/1.1/DTD/svg11.dtd">
<svg version="1.1" id="Capa_1" xmlns="http://www.w3.org/2000/svg" xmlns:xlink="http://www.w3.org/1999/xlink" x="0px" y="0px"
	 width="612.009px" height="612.008px" viewBox="0 0 612.009 612.008" style="enable-background:new 0 0 612.009 612.008;"
	 xml:space="preserve">
<g>
	<g>
		<path d="M517.691,21.7H94.318C42.22,21.7,0,63.92,0,116.018v379.973c0,52.09,42.22,94.318,94.318,94.318h423.374
			c52.088,0,94.317-42.221,94.317-94.318V116.018C612,63.92,569.779,21.7,517.691,21.7z M517.691,512.405h-192.22v-31.592
			c0-10.75-8.717-19.477-19.477-19.477c-10.759,0-19.476,8.717-19.476,19.477v31.592H94.318c-9.051,0-16.413-7.361-16.413-16.414
			V325.485h31.609c10.759,0,19.477-8.717,19.477-19.476c0-10.759-8.717-19.476-19.477-19.476H77.896V116.018
			c0-9.051,7.362-16.413,16.413-16.413h192.21v31.609c0,10.75,8.717,19.477,19.476,19.477c10.75,0,19.477-8.717,19.477-19.477
			V99.605h192.21c9.052,0,16.413,7.362,16.413,16.413v170.525h-31.609c-10.76,0-19.477,8.717-19.477,19.476
			s8.717,19.476,19.477,19.476h31.609V496C534.104,505.043,526.742,512.405,517.691,512.405z"/>
		<path d="M433.278,281.604h-76.29c-10.035-16.896-28.258-28.342-49.341-28.342c-1.615,0-3.138,0.344-4.716,0.474l-70.172-98.737
			c-9.33-13.136-27.571-16.236-40.735-6.888c-13.145,9.348-16.236,27.59-6.888,40.735l70.024,98.542
			c-3.203,7.157-5.069,15.048-5.069,23.412c0,31.795,25.761,57.566,57.556,57.566c21.083,0,39.324-11.447,49.341-28.361h76.29
			c16.135,0,29.215-13.08,29.215-29.215C462.483,294.674,449.413,281.604,433.278,281.604z"/>
	</g>
</g>
<g>
</g>
<g>
</g>
<g>
</g>
<g>
</g>
<g>
</g>
<g>
</g>
<g>
</g>
<g>
</g>
<g>
</g>
<g>
</g>
<g>
</g>
<g>
</g>
<g>
</g>
<g>
</g>
<g>
</g>
</svg>
