<?xml version="1.0" encoding="iso-8859-1"?>
<!-- Generator: Adobe Illustrator 16.0.0, SVG Export Plug-In . SVG Version: 6.00 Build 0)  -->
<!DOCTYPE svg PUBLIC "-//W3C//DTD SVG 1.1//EN" "http://www.w3.org/Graphics/SVG/1.1/DTD/svg11.dtd">
<svg version="1.1" id="Capa_1" xmlns="http://www.w3.org/2000/svg" xmlns:xlink="http://www.w3.org/1999/xlink" x="0px" y="0px"
	 width="792px" height="792px" viewBox="0 0 792 792" style="enable-background:new 0 0 792 792;" xml:space="preserve">
<g>
	<g>
		<g>
			<g>
				<g>
					<path d="M474.412,228.799H426.05c-6.422-9.304-17.144-15.437-29.329-15.437c-0.196,0-0.369,0.046-0.554,0.046l-44.074-62.001
						c-6.421-9.062-18.988-11.194-28.026-4.75c-9.062,6.445-11.183,18.988-4.761,28.049l44.121,62.071
						c-1.395,3.804-2.271,7.863-2.271,12.14c0,19.657,15.933,35.578,35.578,35.578c12.186,0,22.919-6.133,29.33-15.448h48.362
						c11.103,0,20.106-9.016,20.106-20.129C494.519,237.826,485.526,228.799,474.412,228.799z"/>
				</g>
			</g>
		</g>
		<g>
			<g>
				<g>
					<path d="M584.962,0H207.039c-43.175,0-78.188,35.013-78.188,78.188v293.209c0,43.175,35.013,78.188,78.188,78.188v169.426
						h377.923V449.597c43.187,0,78.188-35.013,78.188-78.188V78.188C663.149,35.013,628.148,0,584.962,0z M396.006,420.268
						c-95.319,0-172.608-77.253-172.608-172.573c0-95.296,77.277-172.585,172.608-172.585c95.308,0,172.573,77.277,172.573,172.585
						C568.579,343.014,491.325,420.268,396.006,420.268z"/>
				</g>
			</g>
		</g>
		<g>
			<g>
				<g>
					<polygon points="207.039,676.159 154.917,792 637.095,792 584.962,676.159 					"/>
				</g>
			</g>
		</g>
	</g>
</g>
<g>
</g>
<g>
</g>
<g>
</g>
<g>
</g>
<g>
</g>
<g>
</g>
<g>
</g>
<g>
</g>
<g>
</g>
<g>
</g>
<g>
</g>
<g>
</g>
<g>
</g>
<g>
</g>
<g>
</g>
</svg>
