<?xml version="1.0" encoding="iso-8859-1"?>
<!-- Generator: Adobe Illustrator 16.0.0, SVG Export Plug-In . SVG Version: 6.00 Build 0)  -->
<!DOCTYPE svg PUBLIC "-//W3C//DTD SVG 1.1//EN" "http://www.w3.org/Graphics/SVG/1.1/DTD/svg11.dtd">
<svg version="1.1" id="Capa_1" xmlns="http://www.w3.org/2000/svg" xmlns:xlink="http://www.w3.org/1999/xlink" x="0px" y="0px"
	 width="612px" height="612px" viewBox="0 0 612 612" style="enable-background:new 0 0 612 612;" xml:space="preserve">
<g>
	<g>
		<path d="M612,206.335c0-25.341-20.536-45.877-45.858-45.877H184.03v-12.921c0-17.127-13.894-31.021-31.03-31.021h-37.732
			c-17.117,0-31.011,13.894-31.011,31.021v12.921h-38.37C20.546,160.458,0,180.995,0,206.335V417.19
			c0,24.506,19.858,44.354,44.354,44.354v10.73c0,12.822,10.386,23.209,23.209,23.209h60.017c12.823,0,23.209-10.387,23.209-23.209
			v-10.73h310.432v10.73c0,12.822,10.387,23.209,23.209,23.209h60.018c12.822,0,23.209-10.387,23.209-23.209v-10.73
			c24.485,0,44.335-19.857,44.335-44.334V206.335H612z M58.533,229.201c0-5.64,4.569-10.209,10.219-10.209h474.505
			c5.641,0,10.209,4.569,10.209,10.209v163.601c0,5.641-4.568,10.209-10.209,10.209H68.752c-5.64,0-10.219-4.578-10.219-10.209
			C58.533,392.804,58.533,229.201,58.533,229.201z"/>
		<path d="M147.006,344.843l10.229-8.52c16.085-14.385,29.596-29.252,29.596-47.921c0-20.143-13.855-34.872-38.96-34.872
			c-15.073,0-28.083,5.139-36.435,11.447l7.35,18.669c5.837-4.481,14.179-9.266,23.74-9.266c12.843,0,18.276,7.183,18.276,16.232
			c-0.324,13-12.096,25.498-36.395,47.232l-14.366,12.98v15.723h78.843v-21.363h-41.878
			C147.006,345.187,147.006,344.843,147.006,344.843z"/>
		<path d="M271.334,255.437h-31.787l-42.055,67.721v16.9h49.218v26.5h24.614v-26.5h13.334v-19.494h-13.334v-65.127H271.334z
			 M246.71,295.949v24.615h-24.978v-0.324l14.876-24.291c3.793-6.996,6.691-13.511,10.288-20.693h0.668
			C247.054,282.438,246.71,289.276,246.71,295.949z"/>
		<path d="M308.142,337.159c-9.068,0-15.377,6.672-15.377,15.74c0,8.902,6.308,15.545,15.181,15.545
			c9.256,0,15.417-6.652,15.417-15.545C323.195,343.663,317.211,337.159,308.142,337.159z"/>
		<path d="M308.142,281.926c-9.068,0-15.377,6.485-15.377,15.741c0,8.882,6.308,15.525,15.181,15.525
			c9.256,0,15.417-6.652,15.417-15.525C323.195,288.235,317.211,281.926,308.142,281.926z"/>
		<path d="M372.315,253.54c-28.731,0-42.419,25.479-42.419,57.659c0.156,31.463,12.822,57.256,41.523,57.256
			c28.407,0,42.261-23.611,42.261-57.982C413.683,280.06,402.059,253.54,372.315,253.54z M372.109,348.782
			c-10.062,0-16.193-12.135-16.046-37.594c-0.157-25.852,6.308-37.977,15.907-37.977c10.406,0,15.723,13,15.723,37.575
			C387.693,336.136,382.23,348.782,372.109,348.782z"/>
		<path d="M462.979,253.54c-28.73,0-42.419,25.479-42.419,57.659c0.178,31.463,12.804,57.256,41.525,57.256
			c28.426,0,42.261-23.611,42.261-57.982C504.347,280.06,492.723,253.54,462.979,253.54z M462.773,348.782
			c-10.062,0-16.232-12.135-16.065-37.594c-0.177-25.852,6.328-37.977,15.908-37.977c10.425,0,15.721,13,15.721,37.575
			C478.337,336.136,472.884,348.782,462.773,348.782z"/>
	</g>
</g>
<g>
</g>
<g>
</g>
<g>
</g>
<g>
</g>
<g>
</g>
<g>
</g>
<g>
</g>
<g>
</g>
<g>
</g>
<g>
</g>
<g>
</g>
<g>
</g>
<g>
</g>
<g>
</g>
<g>
</g>
</svg>
