<?xml version="1.0" encoding="iso-8859-1"?>
<!-- Generator: Adobe Illustrator 16.0.0, SVG Export Plug-In . SVG Version: 6.00 Build 0)  -->
<!DOCTYPE svg PUBLIC "-//W3C//DTD SVG 1.1//EN" "http://www.w3.org/Graphics/SVG/1.1/DTD/svg11.dtd">
<svg version="1.1" id="Capa_1" xmlns="http://www.w3.org/2000/svg" xmlns:xlink="http://www.w3.org/1999/xlink" x="0px" y="0px"
	 width="731.168px" height="731.169px" viewBox="0 0 731.168 731.169" style="enable-background:new 0 0 731.168 731.169;"
	 xml:space="preserve">
<g>
	<path d="M667.345,243.617L393.977,10.473c-16.348-13.964-40.403-13.964-56.761,0L63.827,243.617
		c-3.854,3.307-5.254,8.631-3.496,13.378c1.748,4.767,6.277,7.916,11.342,7.916h82.376v228.664c0,29.836,24.184,54.011,54.01,54.011
		h55.52l-40.145,57.317c-4.956-1.241-10.061-2.065-15.395-2.065c-35.427,0-64.151,28.713-64.151,64.15s28.724,64.181,64.151,64.181
		c35.438,0,64.161-28.743,64.161-64.181c0-13.269-4.032-25.585-10.935-35.814l58.549-83.578h203.278
		c29.825,0,54.01-24.175,54.01-54.01V264.911H659.5c5.055,0,9.594-3.148,11.332-7.916
		C672.599,252.248,671.199,246.924,667.345,243.617z M365.591,409.66c-55.431,0-100.383-44.952-100.383-100.383
		c0-55.43,44.952-100.383,100.383-100.383s100.383,44.953,100.383,100.383C465.974,364.708,421.022,409.66,365.591,409.66z"/>
</g>
<g>
</g>
<g>
</g>
<g>
</g>
<g>
</g>
<g>
</g>
<g>
</g>
<g>
</g>
<g>
</g>
<g>
</g>
<g>
</g>
<g>
</g>
<g>
</g>
<g>
</g>
<g>
</g>
<g>
</g>
</svg>
