<?xml version="1.0" encoding="iso-8859-1"?>
<!-- Generator: Adobe Illustrator 16.0.0, SVG Export Plug-In . SVG Version: 6.00 Build 0)  -->
<!DOCTYPE svg PUBLIC "-//W3C//DTD SVG 1.1//EN" "http://www.w3.org/Graphics/SVG/1.1/DTD/svg11.dtd">
<svg version="1.1" id="Capa_1" xmlns="http://www.w3.org/2000/svg" xmlns:xlink="http://www.w3.org/1999/xlink" x="0px" y="0px"
	 width="734.744px" height="734.744px" viewBox="0 0 734.744 734.744" style="enable-background:new 0 0 734.744 734.744;"
	 xml:space="preserve">
<g>
	<g>
		<path d="M673.367,360.062V240.221h-52.626v-29.887c0-43.061-34.9-77.962-77.962-77.962h-29.696V57.556
			C513.083,25.769,487.303,0,455.527,0H280.083c-31.787,0-57.556,25.769-57.556,57.556v74.806h-29.697
			c-43.061,0-77.962,34.901-77.962,77.962v89.807H61.367v119.831h53.513v104.438c0,43.062,34.901,77.962,77.962,77.962h29.696
			v74.838c0,31.775,25.77,57.545,57.556,57.545h175.444c31.786,0,57.556-25.77,57.556-57.545v-74.838h29.696
			c43.062,0,77.962-34.9,77.962-77.962v-29.854h52.626v-60.944h-52.626v-73.55h52.615V360.062z M550.665,524.399
			c0,4.36-3.536,7.896-7.896,7.896H192.831c-4.36,0-7.886-3.536-7.886-7.896V210.324c0-4.36,3.537-7.896,7.886-7.896h349.948
			c4.36,0,7.896,3.536,7.896,7.896v314.076H550.665z"/>
		<path d="M245.33,307.256c-26.35,0-38.913,23.373-38.913,52.879c0.169,28.873,11.76,52.552,38.142,52.552
			c26.033,0,38.765-21.621,38.765-53.186C283.313,331.579,272.64,307.256,245.33,307.256z M245.171,394.646
			c-9.258,0-14.896-11.147-14.758-34.51c-0.137-23.7,5.806-34.848,14.589-34.848c9.575,0,14.442,11.94,14.442,34.521
			C259.444,383.075,254.44,394.646,245.171,394.646z"/>
		<path d="M326.248,307.256c-22.444,0-38.448,16.785-38.448,36.706c0,19.762,14.579,31.861,31.839,31.861
			c9.258,0,15.835-2.682,20.406-7.38l0.465,0.158c-1.879,7.696-6.271,14.284-12.858,18.834c-5.489,3.758-12.879,5.816-20.089,6.249
			c-4.688,0.317-7.358,0.317-10.346,0v18.696c2.66,0.158,6.746,0.296,10.831,0c15.835-0.612,29.179-5.5,38.913-14.272
			c11.127-10.219,17.883-25.728,17.883-46.904C364.844,327.335,352.439,307.256,326.248,307.256z M339.265,352.133
			c-2.186,3.589-6.735,6.725-13.186,6.725c-9.723,0-14.442-7.527-14.442-16.3c-0.137-10.662,5.806-17.883,13.967-17.883
			c10.821,0,14.906,10.663,14.906,21.473C340.51,349.146,340.045,350.729,339.265,352.133z"/>
		<path d="M383.719,383.983c-8.318,0-14.125,6.123-14.125,14.431c0,8.161,5.807,14.273,13.967,14.273
			c8.487,0,14.125-6.112,14.125-14.273C397.528,389.948,392.048,383.983,383.719,383.983z"/>
		<path d="M383.719,333.311c-8.318,0-14.125,5.964-14.125,14.442c0,8.16,5.807,14.294,13.967,14.294
			c8.487,0,14.125-6.123,14.125-14.294C397.528,339.106,392.048,333.311,383.719,333.311z"/>
		<polygon points="401.117,321.54 405.034,339.434 424.49,330.175 424.817,330.175 424.817,410.956 447.873,410.956 
			447.873,308.977 428.1,308.977 		"/>
		<path d="M516.798,351.341c-7.221-5.183-17.102-7.369-26.825-7.369c-2.533,0-4.412,0-6.618,0.306l2.195-15.677h39.546v-19.615
			h-56.194l-6.725,53.513c4.223-0.633,8.15-0.95,13.809-0.95c20.385,0,28.704,6.429,28.704,16.976
			c0,10.8-10.515,15.497-20.386,15.497c-9.258,0-18.517-2.808-23.088-4.993l-4.223,17.884c5.648,2.987,15.994,5.795,28.388,5.795
			c27.458,0,43.79-16.764,43.79-35.767C529.192,364.992,524.484,356.515,516.798,351.341z"/>
	</g>
</g>
<g>
</g>
<g>
</g>
<g>
</g>
<g>
</g>
<g>
</g>
<g>
</g>
<g>
</g>
<g>
</g>
<g>
</g>
<g>
</g>
<g>
</g>
<g>
</g>
<g>
</g>
<g>
</g>
<g>
</g>
</svg>
