<?xml version="1.0" encoding="iso-8859-1"?>
<!-- Generator: Adobe Illustrator 16.0.0, SVG Export Plug-In . SVG Version: 6.00 Build 0)  -->
<!DOCTYPE svg PUBLIC "-//W3C//DTD SVG 1.1//EN" "http://www.w3.org/Graphics/SVG/1.1/DTD/svg11.dtd">
<svg version="1.1" id="Capa_1" xmlns="http://www.w3.org/2000/svg" xmlns:xlink="http://www.w3.org/1999/xlink" x="0px" y="0px"
	 width="792px" height="792px" viewBox="0 0 792 792" style="enable-background:new 0 0 792 792;" xml:space="preserve">
<g>
	<g>
		<g>
			<g>
				<g>
					<path d="M498.233,351.257h-72.992c-4.869-3.89-10.445-6.802-16.562-8.546l-63.375-89.191
						c-11.623-16.397-34.328-20.182-50.678-8.582c-16.374,11.635-20.193,34.304-8.57,50.666l63.397,89.226
						c-0.071,0.943-0.294,1.827-0.294,2.782c0,25.875,20.971,46.847,46.835,46.847c11.105,0,21.183-4.032,29.236-10.516h72.992
						c20.064,0,36.332-16.268,36.332-36.332C534.565,367.525,518.298,351.257,498.233,351.257z"/>
				</g>
			</g>
		</g>
		<g>
			<g>
				<g>
					<path d="M598.87,203.361l-59.695-102.748V0H252.624v100.613l-59.826,103.101c-44.065,48.674-71.154,113.027-71.154,183.886
						v0.012c0,71.001,27.208,135.506,71.473,184.216l59.708,119.569V792h286.552V691.398L599.2,571.487
						c44.066-48.674,71.156-113.026,71.156-183.875v-0.012C670.345,316.576,643.136,252.082,598.87,203.361z M301.098,48.45h189.628
						v47.236H301.098V48.45z M490.89,743.55H301.263v-47.235H490.89V743.55L490.89,743.55z M508.679,554.795
						c-5.387,3.631-10.916,7.002-16.633,10.114c-11.424,6.213-23.52,11.353-36.145,15.29c-18.932,5.894-39.078,9.076-59.896,9.076
						c-20.842,0-40.988-3.183-59.92-9.076c-12.625-3.938-24.708-9.077-36.143-15.29c-5.729-3.124-11.258-6.483-16.633-10.114
						c-53.637-36.272-88.99-97.678-88.99-167.194c0-69.516,35.353-130.909,88.99-167.194
						c32.194-21.761,70.978-34.493,112.696-34.493c41.695,0,80.48,12.72,112.673,34.493c53.637,36.285,88.99,97.678,88.99,167.194
						C597.669,457.117,562.315,518.522,508.679,554.795z"/>
				</g>
			</g>
		</g>
	</g>
</g>
<g>
</g>
<g>
</g>
<g>
</g>
<g>
</g>
<g>
</g>
<g>
</g>
<g>
</g>
<g>
</g>
<g>
</g>
<g>
</g>
<g>
</g>
<g>
</g>
<g>
</g>
<g>
</g>
<g>
</g>
</svg>
